<?xml version="1.0" encoding="UTF-8" standalone="no"?>
<svg
   xmlns:dc="http://purl.org/dc/elements/1.1/"
   xmlns:cc="http://creativecommons.org/ns#"
   xmlns:rdf="http://www.w3.org/1999/02/22-rdf-syntax-ns#"
   xmlns:svg="http://www.w3.org/2000/svg"
   xmlns="http://www.w3.org/2000/svg"
   xmlns:sodipodi="http://sodipodi.sourceforge.net/DTD/sodipodi-0.dtd"
   xmlns:inkscape="http://www.inkscape.org/namespaces/inkscape"
   version="1.0"
   width="512.000000pt"
   height="512.000000pt"
   viewBox="0 0 512.000000 512.000000"
   preserveAspectRatio="xMidYMid meet"
   id="svg8"
   sodipodi:docname="safari-pinned-tab.svg"
   inkscape:version="0.92.3 (2405546, 2018-03-11)">
  <defs
     id="defs12" />
  <sodipodi:namedview
     pagecolor="#ffffff"
     bordercolor="#666666"
     borderopacity="1"
     objecttolerance="10"
     gridtolerance="10"
     guidetolerance="10"
     inkscape:pageopacity="0"
     inkscape:pageshadow="2"
     inkscape:window-width="1296"
     inkscape:window-height="704"
     id="namedview10"
     showgrid="false"
     inkscape:zoom="0.69140625"
     inkscape:cx="397.73082"
     inkscape:cy="295.29539"
     inkscape:window-x="70"
     inkscape:window-y="27"
     inkscape:window-maximized="1"
     inkscape:current-layer="g6" />
  <metadata
     id="metadata2">
Created by potrace 1.11, written by Peter Selinger 2001-2013
<rdf:RDF>
  <cc:Work
     rdf:about="">
    <dc:format>image/svg+xml</dc:format>
    <dc:type
       rdf:resource="http://purl.org/dc/dcmitype/StillImage" />
  </cc:Work>
</rdf:RDF>
</metadata>
  <g
     transform="translate(0.000000,512.000000) scale(0.100000,-0.100000)"
     fill="#000000"
     stroke="none"
     id="g6">
    <path
       d="M 540,5113 C 471,5102 352,5053 287,5011 194,4950 122,4868 70,4766 -4,4618 0,4770 0,2560 0,350 -4,502 70,354 147,202 276,90 443,33 L 525,5 h 2035 2035 l 82,28 c 167,57 296,169 373,321 74,148 70,-4 70,2206 0,2210 4,2058 -70,2206 -75,149 -202,260 -367,321 l -78,28 -2020,1 c -1111,1 -2031,0 -2045,-3 z m 2338,-448 c 57,-9 111,-19 121,-23 16,-6 -49,-125 -489,-890 -279,-486 -510,-885 -515,-885 -4,-1 -172,281 -372,628 -200,346 -375,649 -389,672 l -24,42 77,59 c 165,124 385,239 596,311 124,43 326,86 468,101 118,12 405,4 527,-15 z m 643,-206 c 490,-246 881,-687 1055,-1191 l 23,-68 H 3563 2528 l 14,23 c 8,12 149,252 313,532 164,281 336,574 382,652 l 84,142 49,-19 c 27,-11 95,-42 151,-71 z M 1418,3258 c 232,-403 473,-821 536,-928 l 113,-195 -795,-3 c -437,-1 -797,0 -800,2 -11,11 -33,206 -38,341 -20,473 119,950 383,1317 59,82 160,198 172,198 4,0 197,-330 429,-732 z m 3235,-290 c 36,-145 43,-538 14,-727 -52,-334 -179,-649 -367,-911 -75,-105 -165,-208 -173,-200 -3,3 -238,408 -522,900 -285,492 -526,910 -537,928 l -20,32 h 800 800 z M 3495,1628 c 198,-342 372,-643 387,-670 l 28,-47 -78,-59 C 3732,776 3648,725 3525,662 3249,523 3010,459 2689,438 c -164,-10 -206,-10 -340,5 -85,10 -176,22 -202,28 l -48,11 20,31 c 10,18 189,327 396,687 454,789 607,1050 615,1050 3,0 168,-280 365,-622 z m -914,275 c -6,-10 -183,-313 -394,-673 -313,-533 -388,-654 -403,-652 -32,6 -265,120 -344,169 -136,84 -263,186 -390,313 -232,230 -399,490 -499,773 l -30,87 h 1035 c 983,0 1034,-1 1025,-17 z"
       id="path4"
       style="fill:#2196f3;fill-opacity:1"
       inkscape:connector-curvature="0" />
  </g>
</svg>
